<?xml version="1.0" encoding="UTF-8" standalone="no"?>
<!-- Created with Inkscape (http://www.inkscape.org/) -->

<svg
   width="512"
   height="512"
   viewBox="0 0 512 512"
   version="1.1"
   id="svg1"
   xmlns="http://www.w3.org/2000/svg"
   xmlns:svg="http://www.w3.org/2000/svg">
  <defs
     id="defs1">
    <rect
       x="141.93018"
       y="88.312115"
       width="515.154"
       height="429.9959"
       id="rect6" />
    <rect
       x="106.1848"
       y="47.310062"
       width="334.32444"
       height="358.50513"
       id="rect4" />
    <rect
       x="101.97947"
       y="76.747433"
       width="281.7577"
       height="331.17043"
       id="rect3" />
    <rect
       x="84.106776"
       y="69.38809"
       width="588.74743"
       height="383.73717"
       id="rect1" />
  </defs>
  <g
     id="layer1">
    <rect
       style="fill:#282c34;fill-opacity:1"
       id="rect2"
       width="512"
       height="512"
       x="0"
       y="0"
       rx="64" />
    <path
       d="m 232.4296,269.42567 q 0,9.5 -3.33333,19.49999 -3.16666,9.99999 -9.66666,18.99998 -6.33332,8.83332 -15.83331,15.99998 -9.33333,7 -21.66665,10.66666 1.66666,4.33333 4.33333,8.33332 2.83333,3.83333 6.66666,6.66667 3.83333,2.83333 8.83332,4.49999 5.16667,1.66667 11.83333,1.66667 9.99999,0 17.16665,-3.66667 7.16666,-3.83333 11.99998,-9.99999 5,-6.16666 8,-13.83332 2.99999,-7.66666 4.49999,-15.49998 1.16667,-5.66666 4.66666,-7.5 3.66667,-1.99999 7.33333,-0.99999 3.83333,0.99999 6.5,4.33332 2.83333,3.16667 2.33333,7.66666 -0.66667,5.16667 -2.33333,11.83333 -1.5,6.66666 -4.66667,13.49998 -3.16666,6.83333 -8.16666,13.49999 -4.83332,6.49999 -11.99998,11.66666 -7.16666,5.16666 -16.83332,8.33332 -9.66666,3.16666 -22.16665,3.16666 -11.66665,0 -22.66664,-4.66666 -10.83333,-4.49999 -19.33332,-12.99999 -8.33332,-8.66665 -13.49998,-21.16664 -5,-12.66666 -5,-28.66664 0,-16.16665 4.5,-29.99997 4.49999,-13.99999 11.83332,-24.16665 7.33332,-10.16665 16.66665,-15.83331 9.33332,-5.83333 19.16665,-5.83333 7.16666,0 12.83332,2.5 5.83333,2.49999 9.83332,7.16666 4,4.49999 6,10.83332 2.16666,6.33333 2.16666,13.99998 z m -54.99995,40.3333 q 0,1.5 0.16667,3 0.16667,1.5 0.16667,3.16666 6.33332,-3 11.49999,-7.66666 5.16666,-4.66666 8.83332,-10.66666 3.66666,-5.99999 5.66666,-12.99998 2,-7.16666 2,-14.83332 0,-5.66666 -2,-8.83333 -1.83333,-3.16666 -5.16666,-3.16666 -4.16666,0 -7.49999,2.83333 -3.16667,2.83333 -5.66666,7.49999 -2.33334,4.5 -4,10.33333 -1.5,5.66666 -2.5,11.49999 -1,5.83332 -1.33333,11.16665 -0.33333,5.16666 -0.16667,8.66666 z m 103.66657,-41.99996 q 1.83333,-3.5 3.5,-9.33332 1.83333,-6 3.33333,-13.16666 1.66666,-7.16666 3,-14.99998 1.33333,-7.83333 2.33333,-15.33332 1,-7.5 1.5,-13.99999 0.66666,-6.66666 0.66666,-11.33332 0,-16.99999 -2.5,-24.83331 -2.49999,-7.99999 -6.66666,-7.99999 -1.33333,0 -2.33333,1.33333 -1,1.33333 -1.66666,3.49999 -0.66667,2 -1,4.5 -0.16667,2.33333 -0.16667,4.33333 z m 48.49996,51.49995 q 0.99999,-4.99999 2.99999,-7.16666 2.16667,-2.33333 4.5,-2.5 2.5,-0.33333 4.99999,1.16667 2.5,1.33333 4.33333,3.66666 1.83333,2.33333 2.66667,5.33333 1,2.83333 0.33333,5.66666 -2.33333,6.83333 -6.66666,15.99999 -4.33333,9.16665 -10.99999,17.33331 -6.66666,8.16666 -15.66665,13.83332 -8.99999,5.66666 -20.66665,5.66666 -9.83332,0 -17.33332,-3.33333 -7.49999,-3.16666 -12.66665,-8.99999 -5,-5.99999 -7.66666,-14.16665 -2.5,-8.33333 -2.5,-18.49998 V 177.92576 q 0,-9.49999 2.33333,-17.49998 2.5,-8.16666 6.66666,-13.83332 4.33333,-5.83333 9.99999,-8.99999 5.66667,-3.33333 11.99999,-3.33333 7.5,0 12.66666,2.83333 5.16666,2.66666 8.49999,7.16666 3.33333,4.49999 5.16666,10.33332 2,5.83333 2.83333,11.99999 0.83333,5.99999 1,11.99999 0.16667,5.83333 0.16667,10.66665 0,12.49999 -2.33333,26.33331 -2.33333,13.66666 -6,26.99998 -3.49999,13.33332 -7.83332,25.66664 -4.16667,12.16665 -8.16666,21.66665 -3.83333,9.49999 -7,15.49998 -2.99999,5.99999 -4.16666,6.99999 v 19.83332 q 0,10.33332 4.33333,16.99998 4.33333,6.5 13.83332,6.5 5.83333,0 10.83332,-3.5 5.16667,-3.66666 9,-8.99999 3.99999,-5.5 6.66666,-11.83332 2.66666,-6.5 3.83333,-12.16666 z m 121.99988,-0.33333 q 1.5,-5.33333 3.5,-7.66666 1.99999,-2.5 4.66666,-2.5 2,0 4.16666,1.33333 2.16667,1.16667 3.83333,3.16667 1.83333,1.99999 2.83333,4.49999 1.16667,2.5 1.16667,5 0,0.33333 0,1.33333 0,1 -0.33334,2 -4.33333,14.83332 -10.16665,26.33331 -5.66666,11.33332 -12.33332,20.33331 -6.5,8.99999 -13.49999,15.99998 -7,7.16666 -13.99999,13.16666 v 58.99994 q 0,13.49999 -3.16666,22.66665 -3,9.33332 -7.99999,14.99998 -5,5.83333 -11.33333,8.33333 -6.33332,2.5 -12.83332,2.5 -7.16666,0 -13.16665,-3.16667 -6,-2.99999 -10.49999,-8.33332 -4.33333,-5.33333 -6.83333,-12.49999 -2.33333,-7.16666 -2.33333,-15.33332 0,-12.99999 3.33333,-22.99998 3.5,-9.99999 9.33332,-18.33331 5.83333,-8.33333 13.49999,-15.66666 7.66666,-7.16666 16.16665,-14.66665 v -43.33329 q -6.16666,10.33332 -14.33332,16.83332 -8.16666,6.66666 -19.16665,6.66666 -8.49999,0 -15.33331,-3.5 -6.66666,-3.5 -11.33333,-9.83332 -4.66666,-6.5 -7.16666,-15.49999 -2.33333,-9.16666 -2.33333,-20.33331 0,-13.49999 1.83333,-27.16664 2,-13.66666 4.33333,-24.66665 2.66667,-12.83332 6.16666,-24.83331 0.83334,-2.16666 1.16667,-4.33332 0.5,-2.33334 2,-4.16667 1.5,-1.83333 4.66666,-2.99999 3.33333,-1.16667 10.16666,-1.16667 6.33332,0 8.16666,2.33333 1.83333,2.16667 1.33333,5.16666 -0.33334,3 -2,6.16666 -1.5,3.16667 -2,5.16667 -2.33333,9.49999 -4.16666,17.33331 -1.83333,7.83333 -3.16666,15.83332 -1.16667,7.83333 -1.83334,16.49998 -0.66666,8.5 -0.66666,19.16665 0,13.99999 3.99999,21.16665 4.16667,7.16666 11.66666,7.16666 5.16666,0 9.49999,-3.83333 4.5,-3.83333 7.99999,-10.16666 3.66667,-6.49999 6.33333,-14.66665 2.66666,-8.33333 4.16666,-17.33332 v -54.99994 q 0,-4.83333 -0.66666,-7 -0.66667,-2.16666 -0.66667,-3.99999 0,-2.5 2.5,-4 2.66666,-1.66667 6.33333,-1.66667 8.49999,0 13.33332,4.5 4.99999,4.33333 4.99999,10.49999 v 119.83322 q 9.33333,-10.33332 17.16665,-23.49998 7.83333,-13.16665 12.99999,-30.8333 z m -65.49994,168.99984 q 4,0 6,-3.33333 1.99999,-3.33333 2.66666,-7.83333 0.83333,-4.33333 0.83333,-8.83332 0,-4.5 0,-7 v -36.49996 q -8.33332,8.33332 -13.49998,18.83331 -5,10.49999 -5,25.83331 0,7.99999 2.33333,13.33332 2.5,5.5 6.66666,5.5 z m 35.99998,-279.6664 q 3.83333,0.33333 8.49999,0.5 4,0.33333 9.66666,0.5 5.66666,0 12.66665,0.16666 v -57.83328 q 0,-3.66666 -0.66666,-5.83332 -0.5,-2.16667 -1.16667,-3.33333 -0.5,-1.33334 -1.16667,-2 -0.5,-0.83333 -0.5,-1.66667 0,-1 1,-1.66666 1,-0.66667 2.66667,-1.16667 1.66666,-0.5 3.49999,-0.66666 2,-0.33334 3.83333,-0.33334 8.5,0 13.33332,4.5 5,4.33333 5,10.49999 v 59.83328 q 15.66665,0 32.99997,-0.33334 17.49998,-0.33333 34.99997,-1.16666 2.33333,-2.5 3.66666,-1.83333 1.5,0.66666 1.83333,3.16666 0.5,2.5 0.16667,6.16666 -0.33334,3.66666 -1.33334,7.16666 -0.99999,3.33333 -2.83333,5.83333 -1.66666,2.49999 -3.83333,2.49999 -20.49998,0.5 -36.33329,0.66667 -15.66666,0 -29.33331,0 v 108.16656 q 0,8.33333 3.16666,11.99999 3.16667,3.66667 8.5,3.66667 5.16666,0 8.83332,-3.66667 3.83333,-3.66666 6.49999,-9.16666 2.83333,-5.49999 4.5,-11.83332 1.83333,-6.49999 3,-12.16665 1,-5.33333 3.33333,-7.66666 2.33333,-2.5 4.83333,-2.5 1.99999,0 4.16666,1.33333 2.16666,1.16667 3.83333,3.16667 1.83333,1.99999 2.83333,4.49999 1.16666,2.5 1.16666,5 0,0.33333 0,0.83333 0,0.5 -0.33333,1.5 -2.16666,8.49999 -5.99999,17.83331 -3.66667,9.33333 -9.66666,17.16666 -5.83333,7.83332 -13.99999,12.99998 -8.16666,5.16666 -19.16665,5.16666 -6.83332,0 -12.66665,-2.16666 -5.66666,-2 -9.83332,-6.66666 -4.16667,-4.5 -6.5,-11.66666 -2.33333,-7.16666 -2.33333,-17.33331 v -108.4999 q -5.66666,0 -10.16666,0 -4.33332,-0.16667 -7.33332,-0.33333 -3.5,-0.16667 -6.16666,-0.33334 -4,0 -7,-3.49999 -3.16666,-3.66667 -4.33333,-7.99999 -1.33333,-4.33333 -0.33333,-7.83333 0.83333,-3.66666 4.5,-3.66666 z"
       id="text6"
       style="font-size:341.333px;font-family:'Grand Hotel';-inkscape-font-specification:'Grand Hotel';white-space:pre;fill:#61afef"
       transform="matrix(1.162499,0,0,1,-134.58602,-96.8998)"
       aria-label="elyt" />
    <path
       d="m 106.6995,312.18919 q 14.06074,0 25.04569,6.59097 10.98495,6.37127 17.13652,17.79562 6.15158,11.20465 6.15158,25.26538 v 2.85609 q 0,14.06074 -6.15158,25.48508 -6.15157,11.42435 -17.13652,18.01532 -10.98495,6.37127 -25.04569,6.37127 H 70.449169 V 463.3421 H 21.895689 V 312.18919 Z m -36.250331,67.00819 h 19.992609 q 7.689465,0 11.424352,-3.95458 3.95458,-3.95458 3.95458,-10.76525 v -1.75759 q 0,-7.03037 -3.95458,-10.76525 -3.734887,-3.95459 -11.424352,-3.95459 H 70.449169 Z M 255.65546,309.5528 q 39.10642,0 60.41723,19.99261 21.3108,19.99261 21.3108,58.22023 0,38.22763 -21.3108,58.22024 -21.31081,19.99261 -60.41723,19.99261 -39.10642,0 -60.41723,-19.77291 -21.0911,-19.99261 -21.0911,-58.43994 0,-38.44732 21.0911,-58.22023 21.31081,-19.99261 60.41723,-19.99261 z m 0,36.25033 q -15.59863,0 -23.72749,9.44706 -8.12887,9.44706 -8.12887,25.48509 v 14.06073 q 0,16.03803 8.12887,25.48509 8.12886,9.44705 23.72749,9.44705 15.59863,0 23.72749,-9.44705 8.34856,-9.44706 8.34856,-25.48509 v -14.06073 q 0,-16.03803 -8.34856,-25.48509 -8.12886,-9.44706 -23.72749,-9.44706 z M 427.02072,309.5528 q 29.00027,0 47.67468,11.86374 18.67442,11.64405 19.11382,34.71245 v 2.63639 h -45.4777 v -0.8788 q 0,-6.59097 -4.83337,-10.98495 -4.83338,-4.39398 -14.71984,-4.39398 -9.66675,0 -14.93953,2.85609 -5.05308,2.85608 -5.05308,7.03036 0,5.93188 7.03037,8.78796 7.03037,2.85609 22.629,5.93188 18.23502,3.73488 29.87906,7.90916 11.86375,3.95458 20.65171,13.18194 8.78796,9.22736 9.00766,25.04569 0,26.80328 -18.23502,39.76552 -18.01532,12.96224 -48.33378,12.96224 -35.37154,0 -55.14445,-11.86375 -19.55321,-11.86374 -19.55321,-41.96251 h 45.91709 q 0,11.42435 5.93187,15.37893 5.93188,3.73489 18.45472,3.73489 9.22736,0 15.15923,-1.97729 6.15157,-1.97729 6.15157,-8.12887 0,-5.49247 -6.81067,-8.12886 -6.59097,-2.85609 -21.7502,-5.93187 -18.45471,-3.95459 -30.53816,-8.12887 -12.08344,-4.39398 -21.0911,-14.28043 -9.00766,-9.88646 -9.00766,-26.80328 0,-24.82599 19.11381,-36.47004 19.33351,-11.86374 48.77318,-11.86374 z"
       id="text8"
       style="font-size:219.699px;font-family:'Archivo Black';-inkscape-font-specification:'Archivo Black, Normal';fill:#abb2bf;stroke-width:0.643648"
       transform="scale(0.98484569,1.0153875)"
       aria-label="POS" />
  </g>
</svg>
