<?xml version="1.0" encoding="UTF-8"?>
<svg version="1.1" xmlns="http://www.w3.org/2000/svg" width="512" height="512">
<path d="M55.25390625 60.9609375 C50.42650873 68.81109795 50.57444747 75.76419015 50.61904907 84.82785034 C50.61559072 86.35365703 50.61082496 87.87946123 50.60486734 89.40526021 C50.5923518 93.59071974 50.59853026 97.77597388 50.60782599 101.96143413 C50.61461399 106.47824029 50.60413641 110.99501115 50.59588623 115.5118103 C50.5825434 124.35788831 50.58542928 133.20388997 50.59412415 142.04997097 C50.60089898 149.24033253 50.60181828 156.43067269 50.5985527 163.62103653 C50.598093 164.64437325 50.59763331 165.66770998 50.59715968 166.7220569 C50.5962005 168.80096459 50.59522786 170.87987227 50.5942419 172.95877995 C50.58568618 192.45543979 50.59552457 211.95205732 50.611643 231.44871022 C50.62504233 248.17399859 50.62272161 264.89922448 50.60888672 281.62451172 C50.59282722 301.04825244 50.5865144 320.47195605 50.59572351 339.89570248 C50.59667915 341.96757896 50.59762226 344.03945545 50.5985527 346.11133194 C50.59901553 347.13072142 50.59947836 348.15011089 50.59995521 349.20039096 C50.60254428 356.38023466 50.59817578 363.56005481 50.59111404 370.73989487 C50.58269457 379.49259413 50.58498845 388.2452127 50.60095628 396.99790274 C50.60883356 401.46279901 50.61193987 405.92756081 50.60200882 410.39245605 C50.59304996 414.48217638 50.59801435 418.57163794 50.61394148 422.66133489 C50.61728429 424.1383932 50.61560646 425.61547351 50.60831411 427.0925176 C50.56543534 436.50150119 50.55527489 445.90172313 57.125 453.3125 C57.90230469 454.23482422 57.90230469 454.23482422 58.6953125 455.17578125 C66.77561167 461.57154348 75.18196948 461.57514381 85.13755798 461.5146637 C86.67263107 461.51999425 88.20769892 461.52706286 89.7427569 461.53571075 C93.94461503 461.55429771 98.14611975 461.54804681 102.3479923 461.53755772 C106.88593111 461.53055448 111.42379813 461.54657216 115.9617157 461.55955505 C124.84529958 461.58118142 133.72875529 461.58107166 142.61235683 461.57292951 C149.83365597 461.56662609 157.05491776 461.56776969 164.27621651 461.57420158 C165.81870812 461.57555407 165.81870812 461.57555407 167.39236118 461.57693387 C169.48149407 461.5787851 171.57062696 461.58064766 173.65975983 461.58252143 C193.24421617 461.59909514 212.82860044 461.59038432 232.41305245 461.57353585 C250.32453255 461.5588392 268.2358449 461.57346759 286.14730339 461.60230602 C304.54651682 461.63170877 322.94565285 461.64266973 341.34488875 461.63312382 C343.42658173 461.63210128 345.50827472 461.63110667 347.58996773 461.6301403 C348.61415474 461.62966391 349.63834175 461.62918752 350.69356472 461.6286967 C357.90404086 461.62653374 365.11444362 461.63633038 372.32490349 461.65091133 C381.11526552 461.66843945 389.90541369 461.66831036 398.69576734 461.64555968 C403.17911466 461.6344219 407.66208527 461.63124442 412.14541626 461.64986038 C416.2531524 461.66669707 420.36018418 461.66027147 424.46787495 461.63564359 C425.95027435 461.63077032 427.4327309 461.63424871 428.91508233 461.64713103 C438.55261964 461.72481233 446.29264136 460.86988298 453.82489437 454.44288355 C461.73979794 446.13396424 461.43757939 435.79400582 461.39440918 424.93836975 C461.39930324 423.41154849 461.40549542 421.88473094 461.41286707 420.35791963 C461.42922411 416.17892151 461.42695735 412.00011257 461.4214921 407.82109368 C461.41881671 403.30770261 461.43336313 398.79436138 461.44558716 394.2809906 C461.46662088 385.44555597 461.47118323 376.61018699 461.46939927 367.77473027 C461.46809077 360.59252792 461.47190029 353.41034601 461.47932434 346.22814751 C461.48142357 344.15800284 461.48352117 342.08785816 461.48561716 340.01771349 C461.48666069 338.9872994 461.48770422 337.95688531 461.48877937 336.89524656 C461.50767296 317.41667516 461.50663405 297.93814144 461.49981004 278.45956468 C461.4942335 260.64508647 461.51506633 242.83075203 461.54817051 225.01630742 C461.58191222 206.716541 461.59707535 188.41684345 461.59245348 170.11704534 C461.59020951 159.84621195 461.59544172 149.57551147 461.62034607 139.30470467 C461.6413652 130.56192807 461.64494492 121.81935731 461.62604648 113.07657225 C461.61689299 108.61752124 461.61573377 104.15885396 461.63640213 99.69983292 C461.65512964 95.61431044 461.65058923 91.52948551 461.62785631 87.44398945 C461.62367505 85.96966127 461.62785473 84.49527942 461.64145225 83.02100802 C461.72369644 73.44862063 460.96875839 65.38818017 454.24461508 58.0964399 C446.15310357 50.43295707 437.74229906 50.5636913 427.10295105 50.60559082 C425.56960631 50.60069955 424.03626526 50.59450865 422.50293046 50.58713293 C418.29661104 50.57074007 414.09047913 50.57305 409.88413894 50.5785079 C405.34480929 50.58117891 400.80552954 50.56664492 396.26622009 50.55441284 C387.3757002 50.5333594 378.48524552 50.52881795 369.59470364 50.53060073 C362.36764036 50.53190844 355.14059743 50.52810371 347.91353798 50.52067566 C345.83163351 50.51857646 343.74972904 50.51647886 341.66782457 50.51438284 C340.63159148 50.51333931 339.59535839 50.51229578 338.5277243 50.51122063 C318.92993856 50.49231847 299.33219026 50.49336834 279.73439918 50.50018996 C261.80986321 50.5057649 243.88547019 50.48494203 225.96096762 50.45182949 C207.5527834 50.41808759 189.14466765 50.40292482 170.73645192 50.40754652 C160.40299078 50.40979077 150.06966175 50.4045546 139.73622704 50.37965393 C130.93850567 50.35863434 122.14098885 50.35505535 113.34325906 50.37395352 C108.85586909 50.38310743 104.36886044 50.38426505 99.88150024 50.36359787 C95.76999356 50.34487143 91.65918004 50.34940963 87.54769961 50.37214369 C86.06389045 50.37632528 84.58002798 50.37214416 83.09627523 50.35854775 C71.70355991 50.2612969 62.76691618 51.855618 55.25390625 60.9609375 Z " fill="#1F1F2F" transform="translate(0,0)"/>
<path d="M0 0 C6.87590193 4.02935652 10.82118372 9.18557216 13.17578125 16.7421875 C21.27347124 49.57066043 9.0971711 94.34472175 -7.34936523 123.00878906 C-10.61954369 128.73178283 -10.81984656 133.69717399 -10.68359375 140.2109375 C-10.69068359 141.17386719 -10.69777344 142.13679687 -10.70507812 143.12890625 C-10.64819793 149.49073709 -9.74171711 153.71791858 -5.8828125 158.92578125 C-2.219455 161.52248096 2.52587101 160.76937333 6.75390625 160.0859375 C14.10568001 156.999698 17.79913544 150.14962449 20.75390625 143.0859375 C21.55804699 139.18550413 21.71396513 135.37264387 21.81640625 131.3984375 C23.92476498 91.65617399 23.92476498 91.65617399 33.4609375 78.78125 C36.5467789 76.49972501 38.57893572 76.61658157 42.37890625 76.7109375 C43.52617187 76.72382813 44.6734375 76.73671875 45.85546875 76.75 C48.75390625 77.0859375 48.75390625 77.0859375 50.75390625 79.0859375 C51.55111266 84.26777914 49.64506437 88.30351056 47.8359375 93.046875 C42.75098548 107.32879799 41.59184934 122.48716749 41.44140625 137.5234375 C41.42376221 138.52995361 41.40611816 139.53646973 41.38793945 140.57348633 C41.39423169 147.47607395 41.81995067 154.7472984 46.56640625 160.1484375 C49.58330624 161.44139464 51.49252479 161.54253091 54.75390625 161.0859375 C63.93926027 156.58698859 66.53900165 147.54474869 69.73828125 138.453125 C71.86941637 131.38759242 71.85885563 124.73202352 71.78125 117.4140625 C71.76861392 115.11849103 71.75625223 112.82291804 71.74414062 110.52734375 C71.71923053 106.91710647 71.69113981 103.30694845 71.65795898 99.69677734 C71.62789252 96.20670036 71.61003281 92.71672704 71.59375 89.2265625 C71.57356056 87.59693573 71.57356056 87.59693573 71.55296326 85.93438721 C71.54789513 84.4320755 71.54789513 84.4320755 71.54272461 82.89941406 C71.53526718 82.01594299 71.52780975 81.13247192 71.52012634 80.222229 C71.75390625 78.0859375 71.75390625 78.0859375 73.75390625 76.0859375 C78.28136608 75.46892085 82.47541092 75.54189693 86.69140625 77.3359375 C90.33305213 80.42581885 91.64371309 82.01923429 92.15263367 86.94573975 C92.17902596 88.53363376 92.18906602 90.12185005 92.1862793 91.70996094 C92.20156677 93.01293877 92.20156677 93.01293877 92.21716309 94.34223938 C92.24732835 97.20999573 92.25656443 100.07741824 92.265625 102.9453125 C92.28246906 104.93500888 92.30061893 106.92469461 92.32002258 108.91436768 C92.36755826 114.14874949 92.39734461 119.38308808 92.42346191 124.61761475 C92.45324938 129.96000707 92.49978595 135.30225045 92.54492188 140.64453125 C92.63099562 151.12492214 92.69832286 161.60534366 92.75390625 172.0859375 C94.04057161 170.49893521 95.32425834 168.90951768 96.60668945 167.3190918 C97.67944878 165.9918232 97.67944878 165.9918232 98.77388 164.63774109 C101.2125544 161.49484432 103.0779695 158.41473072 104.94140625 154.8984375 C105.55371094 153.77050781 106.16601562 152.64257812 106.796875 151.48046875 C112.1923412 140.01333894 114.49988023 129.72136352 114.4609375 117.05859375 C114.47410232 115.6899551 114.48942085 114.32133567 114.50675964 112.95274353 C114.54606586 109.4067631 114.55676413 105.86129693 114.56079102 102.31512451 C114.57022712 98.67412235 114.60770372 95.03340974 114.64257812 91.39257812 C114.70659694 84.29040729 114.74029217 77.18839911 114.75390625 70.0859375 C113.83109863 70.12521362 113.83109863 70.12521362 112.88964844 70.1652832 C110.09466217 70.26939671 107.30008367 70.33430499 104.50390625 70.3984375 C103.53582031 70.44033203 102.56773437 70.48222656 101.5703125 70.52539062 C94.36810567 70.6495666 94.36810567 70.6495666 91.14453125 67.69140625 C88.64080829 63.00044216 88.58444363 60.42401013 88.75390625 55.0859375 C89.75390625 54.0859375 89.75390625 54.0859375 92.16235352 53.97241211 C93.72554321 53.98026733 93.72554321 53.98026733 95.3203125 53.98828125 C96.44501953 53.99150391 97.56972656 53.99472656 98.72851562 53.99804688 C99.91251953 54.00642578 101.09652344 54.01480469 102.31640625 54.0234375 C103.50427734 54.02794922 104.69214844 54.03246094 105.91601562 54.03710938 C108.86202851 54.04894075 111.80794306 54.06542463 114.75390625 54.0859375 C114.66148858 47.48371345 114.55416345 40.88185177 114.43652344 34.2800293 C114.39826546 32.03464237 114.36340704 29.78919481 114.33203125 27.54370117 C114.28631208 24.31407013 114.22832818 21.08485528 114.16796875 17.85546875 C114.15064194 16.35207695 114.15064194 16.35207695 114.13296509 14.8183136 C114.10316055 13.40741707 114.10316055 13.40741707 114.07275391 11.96801758 C114.0527684 10.73224724 114.0527684 10.73224724 114.03237915 9.47151184 C113.71454882 6.74877694 112.86746995 4.57976194 111.75390625 2.0859375 C114.40890001 -0.56905626 115.80353922 -0.24303803 119.50390625 -0.2890625 C124.97594908 -0.19720567 127.77957111 0.3207779 131.75390625 4.0859375 C133.5860038 7.07145746 134.00007831 9.28262224 133.98095703 12.76269531 C133.98071533 13.6961377 133.98047363 14.62958008 133.98022461 15.59130859 C133.96999268 16.56406738 133.95976074 17.53682617 133.94921875 18.5390625 C133.94720459 19.43931152 133.94519043 20.33956055 133.94311523 21.26708984 C133.93266728 24.62342438 133.90474467 27.97968616 133.87890625 31.3359375 C133.83765625 38.8434375 133.79640625 46.3509375 133.75390625 54.0859375 C150.25390625 54.0859375 166.75390625 54.0859375 183.75390625 54.0859375 C183.75390625 53.4259375 183.75390625 52.7659375 183.75390625 52.0859375 C185.07390625 52.4159375 186.39390625 52.7459375 187.75390625 53.0859375 C188.29945912 59.63257192 187.58166705 64.60972497 183.75390625 70.0859375 C181.33616044 71.29481041 179.82059561 71.20653093 177.12060547 71.19946289 C175.67933792 71.19934959 175.67933792 71.19934959 174.20895386 71.19923401 C173.16933502 71.19407272 172.12971619 71.18891144 171.05859375 71.18359375 C169.99601349 71.1821788 168.93343323 71.18076385 167.83865356 71.17930603 C164.43537616 71.17369584 161.03216387 71.16114159 157.62890625 71.1484375 C155.32552178 71.14342381 153.02213628 71.13886068 150.71875 71.13476562 C145.06377976 71.1237231 139.40884766 71.10697502 133.75390625 71.0859375 C133.8151236 81.9519907 133.89223447 92.81780384 133.98962116 103.68359661 C134.03434306 108.72907094 134.07359525 113.77446418 134.1003418 118.82006836 C134.12635652 123.68963469 134.16674609 128.55888928 134.21709251 133.42826271 C134.2337736 135.28574559 134.24528014 137.1432824 134.25152016 139.0008297 C134.26114774 141.60334302 134.28919061 144.20505658 134.3215332 146.80737305 C134.32009811 147.5748587 134.31866302 148.34234436 134.31718445 149.13308716 C134.39517761 153.57240142 134.83399612 156.65090956 137.75390625 160.0859375 C142.41949371 160.7632002 144.38162711 160.98359378 148.3515625 158.38671875 C154.86794816 152.14582256 156.62820987 141.48748465 158.76171875 133.01953125 C159.72889815 130.15987877 160.30959372 128.80917784 162.75390625 127.0859375 C166.96931824 126.99429811 168.49852343 127.86315674 171.69140625 130.6484375 C173.61457109 133.29356714 173.75546433 134.12956375 173.87890625 137.5859375 C170.97535862 151.64663575 164.85636322 165.73001974 152.75390625 174.0859375 C145.82862989 178.51811437 138.83228198 179.07783933 130.75390625 178.0859375 C124.36734047 176.32807168 120.61252211 172.28922252 116.75390625 167.0859375 C116.35300781 167.69179688 115.95210937 168.29765625 115.5390625 168.921875 C110.72528484 176.01701214 105.4810281 183.23132626 98.79083252 188.68667603 C94.61874282 192.28413694 92.26058678 194.87455319 91.80151367 200.48535156 C91.7813004 202.52407957 91.80269897 204.56352219 91.859375 206.6015625 C91.85561356 207.69378113 91.85185211 208.78599976 91.84797668 209.91131592 C91.8416967 213.38748231 91.88855358 216.86021052 91.94140625 220.3359375 C91.96775958 223.79668577 91.98243394 227.25686291 91.98127747 230.7177124 C91.98327897 232.86384078 92.00203491 235.01004832 92.0410614 237.15582275 C92.10399009 247.53711115 90.46211579 257.83377498 83.75390625 266.0859375 C82.9134375 266.78847656 82.07296875 267.49101562 81.20703125 268.21484375 C77.85768416 272.13485986 77.58800276 275.5914113 76.87890625 280.5859375 C74.40111017 294.92185038 68.59682967 305.81787902 56.6484375 314.640625 C40.39340493 325.26770625 19.03086462 326.40886199 0.31640625 323.0234375 C-14.16385635 319.3560226 -25.94189218 311.98216156 -33.70703125 299.12890625 C-41.99592128 282.74046632 -42.91097 261.75337353 -37.515625 244.328125 C-35.6246147 239.49877563 -33.26853852 235.29038822 -30.24609375 231.0859375 C-29.50359375 230.0340625 -28.76109375 228.9821875 -27.99609375 227.8984375 C-15.65792111 215.27985184 0.22374714 211.17769681 17.40209961 210.78149414 C28.674725 210.73953174 39.07033805 212.54050557 49.75390625 216.0859375 C50.14320313 215.55226563 50.5325 215.01859375 50.93359375 214.46875 C56.16376222 207.50322609 62.01661249 200.17045093 69.37524414 195.37915039 C72.04885628 193.25133764 72.04885628 193.25133764 72.3215332 189.87792969 C72.29534912 188.64204102 72.26916504 187.40615234 72.2421875 186.1328125 C72.23511276 185.47259094 72.22803802 184.81236938 72.2207489 184.13214111 C72.19285352 182.03223258 72.13013912 179.93503371 72.06640625 177.8359375 C72.04131642 176.4088928 72.01850442 174.98180612 71.99804688 173.5546875 C71.94304745 170.06423002 71.85681537 166.57534839 71.75390625 163.0859375 C71.37588867 163.62355713 70.99787109 164.16117676 70.60839844 164.71508789 C67.74182161 168.68291547 65.24585238 171.94170132 61.00390625 174.5234375 C59.86695313 175.23306641 59.86695313 175.23306641 58.70703125 175.95703125 C53.07931205 179.20985295 47.11647598 178.78615681 40.75390625 178.0859375 C33.78741123 175.52270674 29.51709208 171.35791389 25.75390625 165.0859375 C25.34140625 165.46105469 24.92890625 165.83617187 24.50390625 166.22265625 C15.36032461 174.32533909 7.69748188 178.61520763 -4.73828125 178.39453125 C-13.02017943 177.66594555 -19.84513034 173.36869086 -25.24609375 167.0859375 C-25.96484375 164.8671875 -25.96484375 164.8671875 -26.24609375 163.0859375 C-26.84035156 163.60542969 -27.43460937 164.12492188 -28.046875 164.66015625 C-40.8120769 175.4003961 -53.69401624 179.13478202 -70.24609375 178.0859375 C-81.66766609 176.14699684 -91.89121598 169.79423177 -98.80859375 160.5859375 C-108.01870991 146.96476792 -110.32917072 130.90059724 -107.6328125 114.875 C-104.45194988 99.38172904 -96.89773202 85.59670808 -83.80859375 76.3671875 C-76.74234343 72.29050462 -69.57395104 71.77233103 -61.6953125 73.71484375 C-54.87997309 76.26916423 -51.22490494 81.01988711 -48.10546875 87.4296875 C-44.53583563 98.46309895 -47.79730259 111.55061508 -52.74609375 121.6484375 C-59.37899207 133.00973857 -70.36925759 142.69729641 -83.24609375 146.0859375 C-82.53453125 147.478125 -82.53453125 147.478125 -81.80859375 148.8984375 C-80.24609375 152.0859375 -80.24609375 152.0859375 -79.24609375 155.0859375 C-77.49741892 156.17024844 -77.49741892 156.17024844 -75.24609375 157.0859375 C-74.36050781 157.59382812 -73.47492188 158.10171875 -72.5625 158.625 C-65.80805161 161.60045783 -56.67598172 161.26529996 -49.68359375 158.8984375 C-39.54364625 153.55191972 -35.82673896 145.56487952 -32.08433342 135.05723381 C-30.74168766 130.29797635 -30.71486536 125.75462211 -30.77954102 120.83813477 C-30.7772348 119.77315765 -30.77492859 118.70818054 -30.77255249 117.6109314 C-30.76993945 115.31826188 -30.77628177 113.0255676 -30.79080391 110.73294258 C-30.81284764 107.09497088 -30.80892199 103.45782347 -30.79832458 99.81980896 C-30.77674801 90.78784297 -30.79397693 81.75606447 -30.81982422 72.72412109 C-30.84129079 65.07868155 -30.84308551 57.43377443 -30.81690788 49.78834343 C-30.8125831 46.2208952 -30.8371169 42.65439315 -30.86244202 39.08705139 C-30.87929738 15.03844327 -30.87929738 15.03844327 -21.80859375 5.0234375 C-15.48820675 -0.53741802 -8.19911288 -3.33668246 0 0 Z " fill="#87B1F6" transform="translate(237.24609375,95.9140625)"/>
<path d="M0 0 C8.64996299 7.06591627 13.80526206 17.13120585 16 28 C16.41357527 32.98662711 16.41972026 37.93628475 16.375 42.9375 C16.38660156 44.23107422 16.39820313 45.52464844 16.41015625 46.85742188 C16.36575645 61.47235464 12.95125488 74.12145181 2.625 84.875 C-11.54539144 98.18946175 -29.23774678 100.77527206 -47.9765625 100.27734375 C-62.23861499 99.63247421 -76.76274886 95.10896791 -87.26171875 84.9921875 C-99.87432017 70.53729599 -101.82729822 53.06137628 -101.17919922 34.63085938 C-100.48244002 24.40159894 -96.96192251 15.293488 -91 7 C-90.2575 5.948125 -89.515 4.89625 -88.75 3.8125 C-66.56604394 -18.87563688 -24.38516287 -19.06561962 0 0 Z " fill="#F8F8F8" transform="translate(298,320)"/>
<path d="M0 0 C1.02351563 0.35191406 2.04703125 0.70382812 3.1015625 1.06640625 C13.30030979 4.90042663 19.47197398 9.72780841 24.08984375 19.66796875 C26.01251424 24.59429614 26 27.30702519 26 33 C14.78 33 3.56 33 -8 33 C-8.66 30.36 -9.32 27.72 -10 25 C-15.48277607 21.26704608 -21.52607036 21.28932802 -28 22 C-31.59279457 22.95681345 -31.59279457 22.95681345 -34 25 C-35.23684105 27.43099674 -35.23684105 27.43099674 -35 30 C-30.00671465 36.21583301 -19.47218343 36.87428302 -12.125 38.4375 C1.14413249 41.37849429 16.00943922 44.69663004 24.81640625 56.0234375 C29.54443588 63.91909095 29.90645808 72.65659797 28.3125 81.5 C25.96899593 90.72955369 20.90185323 97.68568461 13 103 C8.76816442 105.04081177 4.49177424 106.63178541 0 108 C-1.19625 108.36609375 -2.3925 108.7321875 -3.625 109.109375 C-21.16882979 113.33998011 -44.10758592 111.10397172 -59.6953125 101.69921875 C-66.66024957 96.56405329 -70.72199403 90.46057098 -72.6875 82.0625 C-73.06198105 78.39258571 -73 74.68897099 -73 71 C-62.11 71 -51.22 71 -40 71 C-39.34 73.64 -38.68 76.28 -38 79 C-35.91424181 81.97965456 -33.40232195 82.86275979 -30 84 C-26.62082172 84.31558873 -26.62082172 84.31558873 -23.0625 84.25 C-21.87785156 84.25515625 -20.69320312 84.2603125 -19.47265625 84.265625 C-14.91342913 83.91688772 -11.28984657 83.28984657 -8 80 C-7.83312552 77.41645782 -7.83312552 77.41645782 -8 75 C-14.52993573 71.34166251 -20.8408765 69.65151399 -28.125 68.0625 C-59.69768736 60.77278868 -59.69768736 60.77278868 -68 48 C-70.88839296 42.37372587 -71.49240098 37.84616709 -71.4375 31.5625 C-71.4674707 30.35110352 -71.4674707 30.35110352 -71.49804688 29.11523438 C-71.49196308 21.5652488 -68.8056154 15.15701919 -63.70703125 9.50390625 C-47.47197243 -4.79929202 -19.89600466 -7.26408381 0 0 Z " fill="#F7F7F7" transform="translate(402,310)"/>
<path d="M0 0 C11.17875 -0.0825 22.3575 -0.165 33.875 -0.25 C37.38624512 -0.28641602 40.89749023 -0.32283203 44.51513672 -0.36035156 C48.84985352 -0.37841797 48.84985352 -0.37841797 50.88821411 -0.3817749 C52.29199314 -0.3878605 53.69575312 -0.40180938 55.09939575 -0.42230225 C66.62262148 -0.58192106 75.90277917 0.80313386 85.11328125 8.1640625 C92.53167075 15.3827852 96.19553744 23.1065425 96.43139648 33.38598633 C96.45905376 45.79746394 94.99759134 55.87671154 86.09765625 65.24609375 C78.49519616 71.60271308 71.11705566 74.16955711 61.390625 74.09765625 C60.74593262 74.09664917 60.10124023 74.09564209 59.43701172 74.09460449 C57.04132291 74.08939402 54.64565957 74.07543281 52.25 74.0625 C44.20625 74.0315625 44.20625 74.0315625 36 74 C36 85.55 36 97.1 36 109 C24.12 109 12.24 109 0 109 C0 73.03 0 37.06 0 0 Z " fill="#F6F6F7" transform="translate(87,309)"/>
<path d="M0 0 C0.77666016 -0.01546875 1.55332031 -0.0309375 2.35351562 -0.046875 C7.68073082 -0.01078887 10.70447861 1.02106476 14.9375 4.5 C22.20950292 12.11023561 23.48037836 18.58757406 23.375 28.75 C23.36597656 29.77544922 23.35695313 30.80089844 23.34765625 31.85742188 C23.15904334 40.07780124 22.65667971 47.18733417 17.1015625 53.62890625 C10.98940243 59.42492011 5.15010749 61.05657591 -3.1796875 60.875 C-9.50968662 60.05158548 -15.09327116 57.24768648 -19.0625 52.1875 C-23.57988232 45.59411478 -23.40119895 37.21783455 -23.375 29.5625 C-23.39916992 28.15581055 -23.39916992 28.15581055 -23.42382812 26.72070312 C-23.42896543 19.32812713 -22.25179082 13.0185031 -18.3125 6.6875 C-12.61550235 1.14875229 -7.69664262 -0.15406124 0 0 Z " fill="#202030" transform="translate(256.0625,333.5)"/>
<path d="M0 0 C2.3125 0 2.3125 0 5 1 C8.30584718 7.66692331 8.54067139 13.83079504 8.5 21.1875 C8.49645508 22.35498779 8.49291016 23.52247559 8.48925781 24.7253418 C8.14936907 43.25297248 4.3309423 61.3199332 -1 79 C-1.33 79 -1.66 79 -2 79 C-2.04630347 69.1426629 -2.08185907 59.2853516 -2.10362434 49.42792797 C-2.11406962 44.85092012 -2.12824237 40.27398657 -2.15087891 35.69702148 C-2.17258079 31.28149496 -2.18456302 26.86603999 -2.18975449 22.45046425 C-2.19345502 20.76432481 -2.20068108 19.07818936 -2.21146011 17.39208031 C-2.22593983 15.03367976 -2.22797943 12.67557638 -2.22705078 10.31713867 C-2.23424133 9.61726837 -2.24143188 8.91739807 -2.24884033 8.19631958 C-2.23330228 4.55896435 -2.07949842 3.11924762 0 0 Z " fill="#1F2031" transform="translate(228,112)"/>
<path d="M0 0 C3.51438055 5.27157082 2.4897216 11.86918146 2 18 C-0.02882805 27.00216517 -5.59543651 35.09919426 -13.375 40.0625 C-16.75420875 42 -16.75420875 42 -18 42 C-18.43700096 28.48534054 -18.63654492 14.30335341 -10 3 C-6.61369761 0.03782694 -4.53428805 -0.59142888 0 0 Z " fill="#202032" transform="translate(168,186)"/>
<path d="M0 0 C4.5478125 -0.1546875 4.5478125 -0.1546875 9.1875 -0.3125 C10.13391357 -0.35802002 11.08032715 -0.40354004 12.05541992 -0.45043945 C16.58414603 -0.5249488 18.39974554 -0.48343157 22.05078125 2.45703125 C22.69402344 3.29621094 23.33726562 4.13539063 24 5 C24.33 5.33 24.66 5.66 25 6 C25.55419529 10.90599112 25.74119722 14.78937787 23.125 19.0625 C20.13576026 21.78798329 18.58942687 22.12392951 14.6484375 22.09765625 C13.88192871 22.09515869 13.11541992 22.09266113 12.32568359 22.09008789 C11.35195801 22.08098389 10.37823242 22.07187988 9.375 22.0625 C6.28125 22.041875 3.1875 22.02125 0 22 C0 14.74 0 7.48 0 0 Z " fill="#202030" transform="translate(123,335)"/>
<path d="M0 0 C0.33 0 0.66 0 1 0 C1 9.24 1 18.48 1 28 C0.01 26.68 -0.98 25.36 -2 24 C-2.51820313 23.32839844 -3.03640625 22.65679687 -3.5703125 21.96484375 C-4.08335937 21.29582031 -4.59640625 20.62679688 -5.125 19.9375 C-5.64320313 19.26589844 -6.16140625 18.59429687 -6.6953125 17.90234375 C-8 16 -8 16 -9 13 C-7.63671875 10.37109375 -7.63671875 10.37109375 -5.6875 7.4375 C-5.05199219 6.46683594 -4.41648437 5.49617188 -3.76171875 4.49609375 C-2 2 -2 2 0 0 Z " fill="#27293C" transform="translate(309,308)"/>
</svg>
